<?xml version="1.0" encoding="utf-8"?>
<!-- Generator: Adobe Illustrator 23.1.0, SVG Export Plug-In . SVG Version: 6.00 Build 0)  -->
<svg version="1.1" id="Layer_1" xmlns="http://www.w3.org/2000/svg" xmlns:xlink="http://www.w3.org/1999/xlink" x="0px" y="0px"
	 viewBox="0 0 555 289" style="enable-background:new 0 0 555 289;" xml:space="preserve">
<style type="text/css">
	.st0{fill:#E27232;}
	.st1{fill:#9F9F9F;}
	.st2{fill:#FFF102;}
	.st3{fill:#01A14A;}
	.st4{fill:#D8232A;}
	.st5{fill:#1C191A;}
</style>
<path class="st0" d="M227.8,144.1c0-42,19.4-79.4,49.7-103.8c-22.9-18.5-52-29.5-83.7-29.5c-73.6,0-133.3,59.7-133.3,133.3
	s59.7,133.3,133.3,133.3c31.7,0,60.8-11.1,83.7-29.5C247.2,223.5,227.8,186,227.8,144.1z"/>
<path class="st1" d="M361.2,10.7c-31.7,0-60.8,11.1-83.7,29.5c30.3,24.4,49.7,61.9,49.7,103.8c0,42-19.4,79.4-49.7,103.8
	c22.9,18.5,52,29.5,83.7,29.5c73.6,0,133.3-59.7,133.3-133.3S434.8,10.7,361.2,10.7z"/>
<rect x="105" y="50" class="st2" width="172.5" height="188.1"/>
<rect x="268.6" y="50" class="st3" width="172.5" height="188.1"/>
<ellipse class="st4" cx="277.5" cy="144.1" rx="49.7" ry="103.8"/>
<polygon class="st5" points="99.3,50 99.3,238.1 129.8,238.1 129.8,92.5 129.8,92.5 262.7,238.1 297.5,238.1 297.5,50 264.4,50 
	264.4,200.4 131.5,50 "/>
<polygon class="st5" points="457,238.1 455.7,50 424.7,50 424.7,128.6 292.1,128.6 292.1,148.6 425,148.6 425,238.1 "/>
</svg>
